<svg version="1.1" id="Layer_1" xmlns="http://www.w3.org/2000/svg" xmlns:xlink="http://www.w3.org/1999/xlink" x="0px" y="0px"
	 width="100%" viewBox="0 0 1024 576" enable-background="new 0 0 1024 576" xml:space="preserve">
<path fill="#FFFFFF" opacity="1.000000" stroke="none" 
	d="
M725.000000,577.000000 
	C483.333344,577.000000 242.166672,577.000000 1.000000,577.000000 
	C1.000000,385.000000 1.000000,193.000000 1.000000,1.000000 
	C342.333344,1.000000 683.666687,1.000000 1025.000000,1.000000 
	C1025.000000,193.000000 1025.000000,385.000000 1025.000000,577.000000 
	C925.166687,577.000000 825.333313,577.000000 725.000000,577.000000 
M640.060608,33.014675 
	C629.845825,33.014675 619.630981,33.014675 609.068115,33.014675 
	C609.068115,43.939163 609.068115,54.481277 608.122498,65.003181 
	C597.852661,65.003181 587.582825,65.003181 576.831665,65.003181 
	C576.831665,75.972641 576.831665,86.374153 576.831665,97.248077 
	C565.945312,97.248077 555.544434,97.248077 544.848877,97.248077 
	C544.848877,108.015121 544.848877,118.292297 544.848877,129.054138 
	C534.145203,129.054138 523.744080,129.054138 512.866089,129.054138 
	C512.866089,139.936874 512.866089,150.338654 512.866089,161.213715 
	C501.980682,161.213715 491.579041,161.213715 480.706207,161.213715 
	C480.706207,172.101028 480.706207,182.502106 480.706207,193.195923 
	C469.938477,193.195923 459.660675,193.195923 448.900452,193.195923 
	C448.900452,203.901947 448.900452,214.302780 448.900452,225.179321 
	C438.016022,225.179321 427.614441,225.179321 416.740875,225.179321 
	C416.740875,236.066132 416.740875,246.467514 416.740875,257.162170 
	C405.973663,257.162170 395.696533,257.162170 384.934814,257.162170 
	C384.934814,267.866089 384.934814,278.267578 384.934814,289.144958 
	C374.051727,289.144958 363.649933,289.144958 353.022980,289.144958 
	C353.022980,300.111572 353.022980,310.588623 352.083527,321.005981 
	C341.745972,321.005981 331.408386,321.005981 321.165558,321.005981 
	C321.165558,332.151825 321.165558,342.568695 321.017578,353.913757 
	C321.017578,364.174957 321.017578,374.436157 321.017578,385.090973 
	C331.994537,385.090973 342.450836,385.090973 352.990204,386.013306 
	C352.990204,396.267639 352.990204,406.521942 352.990204,416.834473 
	C364.082916,416.834473 374.548767,416.834473 385.939240,416.985352 
	C396.268616,417.022858 406.597992,417.060364 416.992004,418.017548 
	C416.992004,428.272156 416.992004,438.526764 416.992004,448.710144 
	C470.657959,448.710144 523.692810,448.710144 577.082703,448.710144 
	C577.082703,437.957458 577.082703,427.492432 577.021118,417.015991 
	C577.021118,417.015991 577.036682,417.076996 577.967102,417.008148 
	C598.872925,417.008148 619.778748,417.008148 641.113586,417.008148 
	C641.113586,406.080566 641.113586,395.686401 641.113586,384.872864 
	C651.933411,384.872864 662.327271,384.872864 673.140686,384.872864 
	C673.140686,374.052704 673.140686,363.658905 673.140686,352.845764 
	C683.961365,352.845764 694.355286,352.845764 705.091064,352.845764 
	C705.091064,331.306610 705.091064,310.199677 706.013428,289.009766 
	C716.267395,289.009766 726.521362,289.009766 736.731506,289.009766 
	C736.731506,224.693802 736.731506,161.004608 736.731506,96.908958 
	C726.008179,96.908958 715.550476,96.908958 705.009827,95.986671 
	C705.009827,85.746391 705.009827,75.506111 705.009827,64.908958 
	C693.980957,64.908958 683.536865,64.908958 673.009827,63.986664 
	C673.009827,53.732430 673.009827,43.478191 673.009827,33.165524 
	C661.917480,33.165524 651.451782,33.165524 640.060608,33.014675 
z"/>
<path fill="#CC3333" opacity="1.000000" stroke="none" 
	d="
M353.022980,321.065674 
	C353.022980,310.588623 353.022980,300.111572 353.022980,289.144958 
	C363.649933,289.144958 374.051727,289.144958 384.934814,289.144958 
	C384.934814,278.267578 384.934814,267.866089 384.934814,257.162170 
	C395.696533,257.162170 405.973663,257.162170 416.740875,257.162170 
	C416.740875,246.467514 416.740875,236.066132 416.740875,225.179321 
	C427.614441,225.179321 438.016022,225.179321 448.900452,225.179321 
	C448.900452,214.302780 448.900452,203.901947 448.900452,193.195923 
	C459.660675,193.195923 469.938477,193.195923 480.706207,193.195923 
	C480.706207,182.502106 480.706207,172.101028 480.706207,161.213715 
	C491.579041,161.213715 501.980682,161.213715 512.866089,161.213715 
	C512.866089,150.338654 512.866089,139.936874 512.866089,129.054138 
	C523.744080,129.054138 534.145203,129.054138 544.848877,129.054138 
	C544.848877,118.292297 544.848877,108.015121 544.848877,97.248077 
	C555.544434,97.248077 565.945312,97.248077 576.831665,97.248077 
	C576.831665,86.374153 576.831665,75.972641 576.831665,65.003181 
	C587.582825,65.003181 597.852661,65.003181 608.558777,65.007660 
	C608.995056,65.012131 608.992920,64.937759 608.995850,65.410355 
	C609.008240,86.932381 609.017761,107.981827 608.556091,129.018524 
	C597.824219,129.005768 587.563477,129.005768 577.420288,129.005768 
	C577.420288,140.077087 577.420288,150.457611 577.420288,160.684372 
	C588.105164,160.684372 598.367615,160.684372 608.968750,160.684372 
	C608.968750,149.905991 608.968750,139.439331 609.439270,128.983368 
	C620.167725,128.994095 630.425598,128.994095 640.580627,128.994095 
	C640.580627,172.073914 640.580627,214.437134 640.580627,257.221802 
	C629.903687,257.221802 619.641174,257.221802 609.019470,257.221802 
	C609.019470,278.769287 609.019470,299.894287 608.549561,321.011719 
	C587.162170,321.004120 566.244751,321.004120 544.910278,321.004120 
	C544.910278,331.961365 544.910278,342.222290 544.910278,352.677795 
	C502.122223,352.677795 459.759460,352.677795 416.972626,352.677795 
	C416.972626,341.895844 416.972626,331.432281 417.443878,320.981476 
	C428.175812,320.994263 438.436493,320.994263 448.579712,320.994263 
	C448.579712,309.922913 448.579712,299.542389 448.579712,289.315674 
	C437.894653,289.315674 427.632446,289.315674 417.031311,289.315674 
	C417.031311,300.094055 417.031311,310.560730 416.560791,321.016663 
	C395.039459,321.001587 373.988586,320.997253 352.974792,320.992676 
	C353.011810,320.992462 353.022980,321.065674 353.022980,321.065674 
M577.000000,216.448364 
	C577.000000,208.712021 577.000000,200.975662 577.000000,193.421570 
	C565.884399,193.421570 555.522095,193.421570 545.289551,193.421570 
	C545.289551,204.088760 545.289551,214.332397 545.289551,224.664719 
	C555.942749,224.664719 566.303711,224.664719 577.000000,224.664719 
	C577.000000,222.034637 577.000000,219.731400 577.000000,216.448364 
M506.410156,289.000000 
	C508.500946,289.000000 510.591705,289.000000 512.613647,289.000000 
	C512.613647,277.951324 512.613647,267.589081 512.613647,257.255432 
	C501.981964,257.255432 491.738495,257.255432 481.300873,257.255432 
	C481.300873,267.872681 481.300873,278.232971 481.300873,289.000000 
	C489.540039,289.000000 497.484100,289.000000 506.410156,289.000000 
z"/>
<path fill="#009133" opacity="1.000000" stroke="none" 
	d="
M705.091064,289.092773 
	C705.091064,310.199677 705.091064,331.306610 705.091064,352.845764 
	C694.355286,352.845764 683.961365,352.845764 673.140686,352.845764 
	C673.140686,363.658905 673.140686,374.052704 673.140686,384.872864 
	C662.327271,384.872864 651.933411,384.872864 641.113586,384.872864 
	C641.113586,395.686401 641.113586,406.080566 641.113586,417.008148 
	C619.778748,417.008148 598.872925,417.008148 577.490845,416.568329 
	C576.991272,405.717804 576.967834,395.307068 576.952881,384.928406 
	C576.961304,384.960449 576.896118,384.969116 577.372192,384.978821 
	C588.084595,384.988495 598.320923,384.988495 608.968994,384.988495 
	C608.968994,373.781494 608.968994,363.338837 608.971802,352.935455 
	C608.974670,352.974731 608.896118,352.969116 609.372192,352.978821 
	C620.084595,352.988495 630.320923,352.988495 640.968994,352.988495 
	C640.968994,341.781494 640.968994,331.338837 640.971802,320.935455 
	C640.974670,320.974731 640.896118,320.969116 641.372192,320.978821 
	C652.084595,320.988495 662.320923,320.988495 672.968994,320.988495 
	C672.968994,309.781494 672.968994,299.338837 672.971802,288.935455 
	C672.974670,288.974731 672.896118,288.969116 673.372192,288.978821 
	C684.170288,288.930573 694.492371,288.872650 704.883728,288.884064 
	C704.953064,288.953430 705.091064,289.092773 705.091064,289.092773 
z"/>
<path fill="#06421B" opacity="1.000000" stroke="none" 
	d="
M576.944458,384.896362 
	C576.967834,395.307068 576.991272,405.717804 577.025635,416.602753 
	C577.036682,417.076996 577.021118,417.015991 576.577271,417.013672 
	C523.064758,417.040192 469.996063,417.069031 416.927368,417.097870 
	C406.597992,417.060364 396.268616,417.022858 385.472443,416.451965 
	C385.021667,405.577911 385.037720,395.237274 385.517853,384.942169 
	C449.636139,384.957245 513.290283,384.926819 576.944458,384.896362 
z"/>
<path fill="#009133" opacity="1.000000" stroke="none" 
	d="
M705.092712,96.908958 
	C715.550476,96.908958 726.008179,96.908958 736.731506,96.908958 
	C736.731506,161.004608 736.731506,224.693802 736.731506,289.009766 
	C726.521362,289.009766 716.267395,289.009766 705.552246,289.051270 
	C705.091064,289.092773 704.953064,288.953430 704.950562,288.434753 
	C704.964172,225.167938 704.980957,162.419785 704.988708,99.671616 
	C704.988831,98.843010 704.875244,98.014389 704.884094,97.116425 
	C704.953430,97.047081 705.092712,96.908958 705.092712,96.908958 
z"/>
<path fill="#009133" opacity="1.000000" stroke="none" 
	d="
M416.959686,417.557739 
	C469.996063,417.069031 523.064758,417.040192 576.608093,417.019379 
	C577.082703,427.492432 577.082703,437.957458 577.082703,448.710144 
	C523.692810,448.710144 470.657959,448.710144 416.992004,448.710144 
	C416.992004,438.526764 416.992004,428.272156 416.959686,417.557739 
z"/>
<path fill="#009133" opacity="1.000000" stroke="none" 
	d="
M673.092712,64.908958 
	C683.536865,64.908958 693.980957,64.908958 705.009827,64.908958 
	C705.009827,75.506111 705.009827,85.746391 705.051270,96.447815 
	C705.092712,96.908958 704.953430,97.047081 704.434814,97.049438 
	C693.576233,97.044815 683.236145,97.037827 672.935425,97.028061 
	C672.974731,97.025269 672.968994,97.103859 672.978760,96.627808 
	C672.930603,85.829765 672.872681,75.507767 672.884094,65.116425 
	C672.953430,65.047081 673.092712,64.908958 673.092712,64.908958 
z"/>
<path fill="#06421B" opacity="1.000000" stroke="none" 
	d="
M321.165558,352.985565 
	C321.165558,342.568695 321.165558,332.151825 321.165558,321.005981 
	C331.408386,321.005981 341.745972,321.005981 352.553253,321.035828 
	C353.022980,321.065674 353.011810,320.992462 353.002075,321.461121 
	C353.029358,332.268585 353.066345,342.607422 352.628479,352.963928 
	C341.824280,352.982971 331.494934,352.984283 321.165558,352.985565 
z"/>
<path fill="#009133" opacity="1.000000" stroke="none" 
	d="
M321.091553,353.449646 
	C331.494934,352.984283 341.824280,352.982971 352.595154,352.973389 
	C353.036652,352.965149 353.030914,352.896179 353.021210,353.372192 
	C353.069427,364.170197 353.127350,374.492188 353.115906,384.883545 
	C353.046539,384.952911 352.907166,385.090973 352.907166,385.090973 
	C342.450836,385.090973 331.994537,385.090973 321.017578,385.090973 
	C321.017578,374.436157 321.017578,364.174957 321.091553,353.449646 
z"/>
<path fill="#009133" opacity="1.000000" stroke="none" 
	d="
M385.053741,384.896637 
	C385.037720,395.237274 385.021667,405.577911 385.010132,416.376526 
	C374.548767,416.834473 364.082916,416.834473 352.990204,416.834473 
	C352.990204,406.521942 352.990204,396.267639 352.948669,385.552124 
	C352.907166,385.090973 353.046539,384.952911 353.565186,384.950562 
	C364.423828,384.955170 374.763824,384.962158 385.069336,384.966248 
	C385.034790,384.963379 385.053741,384.896637 385.053741,384.896637 
z"/>
<path fill="#009133" opacity="1.000000" stroke="none" 
	d="
M640.986084,33.165524 
	C651.451782,33.165524 661.917480,33.165524 673.009827,33.165524 
	C673.009827,43.478191 673.009827,53.732430 673.051270,64.447815 
	C673.092712,64.908958 672.953430,65.047081 672.434814,65.049438 
	C661.576233,65.044815 651.236145,65.037827 640.930603,65.033737 
	C640.965088,65.036621 640.946228,65.103355 640.963867,64.628525 
	C640.983032,53.824303 640.984558,43.494915 640.986084,33.165524 
z"/>
<path fill="#06421B" opacity="1.000000" stroke="none" 
	d="
M640.523315,33.090099 
	C640.984558,43.494915 640.983032,53.824303 640.499756,64.582993 
	C629.676331,64.987450 619.334595,64.962608 608.992920,64.937759 
	C608.992920,64.937759 608.995056,65.012131 609.031616,65.017761 
	C609.068115,54.481277 609.068115,43.939163 609.068115,33.014675 
	C619.630981,33.014675 629.845825,33.014675 640.523315,33.090099 
z"/>
<path fill="#FCCFA3" opacity="1.000000" stroke="none" 
	d="
M608.995850,65.410355 
	C619.334595,64.962608 629.676331,64.987450 640.482117,65.057823 
	C640.946228,65.103355 640.965088,65.036621 640.976318,65.498764 
	C640.987549,76.215279 640.987549,86.469650 640.987549,97.103859 
	C652.050781,97.103859 662.509888,97.103859 672.968994,97.103859 
	C672.968994,97.103859 672.974731,97.025269 672.981140,97.493088 
	C672.991699,107.436691 673.004150,116.912498 672.998596,126.388283 
	C672.966797,180.581894 672.930725,234.775497 672.896118,288.969116 
	C672.896118,288.969116 672.974670,288.974731 672.506836,288.981140 
	C661.784668,288.987579 651.530273,288.987579 640.896118,288.987579 
	C640.896118,300.050903 640.896118,310.510010 640.896118,320.969116 
	C640.896118,320.969116 640.974670,320.974731 640.506836,320.981140 
	C629.686829,320.985809 619.334595,320.984039 608.991577,320.991577 
	C609.000732,321.000885 609.019470,321.019318 609.019470,321.019318 
	C609.019470,299.894287 609.019470,278.769287 609.019470,257.221802 
	C619.641174,257.221802 629.903687,257.221802 640.580627,257.221802 
	C640.580627,214.437134 640.580627,172.073914 640.580627,128.994095 
	C630.425598,128.994095 620.167725,128.994095 609.462097,128.989838 
	C609.014404,128.985580 609.027283,129.031265 609.027283,129.031265 
	C609.017761,107.981827 609.008240,86.932381 608.995850,65.410355 
z"/>
<path fill="#FCCFA3" opacity="1.000000" stroke="none" 
	d="
M353.070007,352.955688 
	C353.066345,342.607422 353.029358,332.268585 352.965057,321.461365 
	C373.988586,320.997253 395.039459,321.001587 416.537933,321.010193 
	C416.985565,321.014435 416.972626,320.968689 416.972626,320.968689 
	C416.972626,331.432281 416.972626,341.895844 416.972626,352.677795 
	C459.759460,352.677795 502.122223,352.677795 544.910278,352.677795 
	C544.910278,342.222290 544.910278,331.961365 544.910278,321.004120 
	C566.244751,321.004120 587.162170,321.004120 608.549561,321.011719 
	C609.019470,321.019318 609.000732,321.000885 608.999329,321.461365 
	C608.963989,332.270966 608.930054,342.620026 608.896118,352.969116 
	C608.896118,352.969116 608.974670,352.974731 608.506836,352.981140 
	C597.784668,352.987579 587.530273,352.987579 576.896118,352.987579 
	C576.896118,364.050903 576.896118,374.510010 576.896118,384.969116 
	C576.896118,384.969116 576.961304,384.960449 576.952881,384.928406 
	C513.290283,384.926819 449.636139,384.957245 385.517853,384.942169 
	C385.053741,384.896637 385.034790,384.963379 385.023621,384.501251 
	C385.012421,373.784729 385.012421,363.530334 385.012421,352.896179 
	C373.949127,352.896179 363.490021,352.896179 353.030914,352.896179 
	C353.030914,352.896179 353.036652,352.965149 353.070007,352.955688 
z"/>
<path fill="#000000" opacity="1.000000" stroke="none" 
	d="
M608.991577,128.979126 
	C608.968750,139.439331 608.968750,149.905991 608.968750,160.684372 
	C598.367615,160.684372 588.105164,160.684372 577.420288,160.684372 
	C577.420288,150.457611 577.420288,140.077087 577.420288,129.005768 
	C587.563477,129.005768 597.824219,129.005768 608.556091,129.018524 
	C609.027283,129.031265 609.014404,128.985580 608.991577,128.979126 
z"/>
<path fill="#000000" opacity="1.000000" stroke="none" 
	d="
M577.000000,216.938263 
	C577.000000,219.731400 577.000000,222.034637 577.000000,224.664719 
	C566.303711,224.664719 555.942749,224.664719 545.289551,224.664719 
	C545.289551,214.332397 545.289551,204.088760 545.289551,193.421570 
	C555.522095,193.421570 565.884399,193.421570 577.000000,193.421570 
	C577.000000,200.975662 577.000000,208.712021 577.000000,216.938263 
z"/>
<path fill="#000000" opacity="1.000000" stroke="none" 
	d="
M505.919159,289.000000 
	C497.484100,289.000000 489.540039,289.000000 481.300873,289.000000 
	C481.300873,278.232971 481.300873,267.872681 481.300873,257.255432 
	C491.738495,257.255432 501.981964,257.255432 512.613647,257.255432 
	C512.613647,267.589081 512.613647,277.951324 512.613647,289.000000 
	C510.591705,289.000000 508.500946,289.000000 505.919159,289.000000 
z"/>
<path fill="#000000" opacity="1.000000" stroke="none" 
	d="
M417.008423,321.020905 
	C417.031311,310.560730 417.031311,300.094055 417.031311,289.315674 
	C427.632446,289.315674 437.894653,289.315674 448.579712,289.315674 
	C448.579712,299.542389 448.579712,309.922913 448.579712,320.994263 
	C438.436493,320.994263 428.175812,320.994263 417.443878,320.981476 
	C416.972626,320.968689 416.985565,321.014435 417.008423,321.020905 
z"/>
<path fill="#06421B" opacity="1.000000" stroke="none" 
	d="
M673.372192,288.978821 
	C672.930725,234.775497 672.966797,180.581894 672.998596,126.388283 
	C673.004150,116.912498 672.991699,107.436691 672.941833,97.495872 
	C683.236145,97.037827 693.576233,97.044815 704.365479,97.118790 
	C704.875244,98.014389 704.988831,98.843010 704.988708,99.671616 
	C704.980957,162.419785 704.964172,225.167938 704.881226,288.365417 
	C694.492371,288.872650 684.170288,288.930573 673.372192,288.978821 
z"/>
<path fill="#06421B" opacity="1.000000" stroke="none" 
	d="
M641.372192,320.978821 
	C640.896118,310.510010 640.896118,300.050903 640.896118,288.987579 
	C651.530273,288.987579 661.784668,288.987579 672.504028,288.941895 
	C672.968994,299.338837 672.968994,309.781494 672.968994,320.988495 
	C662.320923,320.988495 652.084595,320.988495 641.372192,320.978821 
z"/>
<path fill="#06421B" opacity="1.000000" stroke="none" 
	d="
M609.372192,352.978821 
	C608.930054,342.620026 608.963989,332.270966 608.990112,321.452087 
	C619.334595,320.984039 629.686829,320.985809 640.504028,320.941895 
	C640.968994,331.338837 640.968994,341.781494 640.968994,352.988495 
	C630.320923,352.988495 620.084595,352.988495 609.372192,352.978821 
z"/>
<path fill="#06421B" opacity="1.000000" stroke="none" 
	d="
M577.372192,384.978821 
	C576.896118,374.510010 576.896118,364.050903 576.896118,352.987579 
	C587.530273,352.987579 597.784668,352.987579 608.504028,352.941895 
	C608.968994,363.338837 608.968994,373.781494 608.968994,384.988495 
	C598.320923,384.988495 588.084595,384.988495 577.372192,384.978821 
z"/>
<path fill="#06421B" opacity="1.000000" stroke="none" 
	d="
M672.978760,96.627808 
	C662.509888,97.103859 652.050781,97.103859 640.987549,97.103859 
	C640.987549,86.469650 640.987549,76.215279 640.941833,65.495872 
	C651.236145,65.037827 661.576233,65.044815 672.365479,65.118790 
	C672.872681,75.507767 672.930603,85.829765 672.978760,96.627808 
z"/>
<path fill="#06421B" opacity="1.000000" stroke="none" 
	d="
M353.021210,353.372192 
	C363.490021,352.896179 373.949127,352.896179 385.012421,352.896179 
	C385.012421,363.530334 385.012421,373.784729 385.058136,384.504120 
	C374.763824,384.962158 364.423828,384.955170 353.634521,384.881165 
	C353.127350,374.492188 353.069427,364.170197 353.021210,353.372192 
z"/>
</svg>